{
	"patcher" : 	{
		"fileversion" : 1,
		"appversion" : 		{
			"major" : 7,
			"minor" : 3,
			"revision" : 6,
			"architecture" : "x86",
			"modernui" : 1
		}
,
		"rect" : [ 265.0, 163.0, 806.0, 301.0 ],
		"bgcolor" : [ 1.0, 1.0, 1.0, 0.0 ],
		"bglocked" : 0,
		"openinpresentation" : 1,
		"default_fontsize" : 12.0,
		"default_fontface" : 0,
		"default_fontname" : "Arial",
		"gridonopen" : 1,
		"gridsize" : [ 15.0, 15.0 ],
		"gridsnaponopen" : 1,
		"objectsnaponopen" : 1,
		"statusbarvisible" : 2,
		"toolbarvisible" : 1,
		"lefttoolbarpinned" : 0,
		"toptoolbarpinned" : 0,
		"righttoolbarpinned" : 0,
		"bottomtoolbarpinned" : 0,
		"toolbars_unpinned_last_save" : 0,
		"tallnewobj" : 0,
		"boxanimatetime" : 200,
		"enablehscroll" : 1,
		"enablevscroll" : 1,
		"devicewidth" : 0.0,
		"description" : "",
		"digest" : "",
		"tags" : "",
		"style" : "",
		"subpatcher_template" : "",
		"boxes" : [ 			{
				"box" : 				{
					"fontface" : 0,
					"fontsize" : 11.0,
					"id" : "obj-1",
					"maxclass" : "live.slider",
					"numinlets" : 1,
					"numoutlets" : 2,
					"outlettype" : [ "", "float" ],
					"parameter_enable" : 1,
					"patching_rect" : [ 520.0, 142.771057, 57.0, 50.0 ],
					"presentation" : 1,
					"presentation_rect" : [ 2.0, 160.0, 54.0, 152.0 ],
					"saved_attribute_attributes" : 					{
						"valueof" : 						{
							"parameter_longname" : "live.slider[29]",
							"parameter_shortname" : "SlideDown",
							"parameter_type" : 0,
							"parameter_mmax" : 1000.0,
							"parameter_unitstyle" : 1,
							"parameter_exponent" : 3.5
						}

					}
,
					"varname" : "live.slider[1]"
				}

			}
, 			{
				"box" : 				{
					"id" : "obj-21",
					"maxclass" : "newobj",
					"numinlets" : 1,
					"numoutlets" : 2,
					"outlettype" : [ "", "" ],
					"patching_rect" : [ 16.659973, 104.771057, 439.0, 22.0 ],
					"style" : "Jamoma_highlighted_orange",
					"text" : "ossia.parameter SlideDown @type float @range 0. 1000. @default 0. @clip both"
				}

			}
, 			{
				"box" : 				{
					"id" : "obj-20",
					"maxclass" : "newobj",
					"numinlets" : 1,
					"numoutlets" : 2,
					"outlettype" : [ "", "" ],
					"patching_rect" : [ 16.659973, 76.771057, 424.0, 22.0 ],
					"style" : "Jamoma_highlighted_orange",
					"text" : "ossia.parameter SlideUp @type float @range 0. 1000. @default 0. @clip both"
				}

			}
, 			{
				"box" : 				{
					"id" : "obj-19",
					"maxclass" : "newobj",
					"numinlets" : 1,
					"numoutlets" : 2,
					"outlettype" : [ "", "" ],
					"patching_rect" : [ 16.659973, 46.771057, 395.0, 22.0 ],
					"style" : "Jamoma_highlighted_orange",
					"text" : "ossia.parameter Master @type float @range 0. 1. @clip both @default 1"
				}

			}
, 			{
				"box" : 				{
					"color" : [ 1.0, 0.558253, 0.0, 1.0 ],
					"fontname" : "Arial",
					"fontsize" : 12.0,
					"id" : "obj-31",
					"maxclass" : "newobj",
					"numinlets" : 1,
					"numoutlets" : 1,
					"outlettype" : [ "" ],
					"patching_rect" : [ 16.659973, 15.041016, 228.0, 22.0 ],
					"style" : "",
					"text" : "ossia.model MasterRemote"
				}

			}
, 			{
				"box" : 				{
					"color" : [ 0.239216, 0.643137, 0.709804, 1.0 ],
					"fontname" : "Arial",
					"fontsize" : 12.0,
					"id" : "obj-118",
					"maxclass" : "newobj",
					"numinlets" : 1,
					"numoutlets" : 1,
					"outlettype" : [ "" ],
					"patching_rect" : [ 610.5, 156.771057, 146.0, 22.0 ],
					"style" : "",
					"text" : "-rs SlideDown SlideDown"
				}

			}
, 			{
				"box" : 				{
					"color" : [ 0.239216, 0.643137, 0.709804, 1.0 ],
					"fontname" : "Arial",
					"fontsize" : 12.0,
					"id" : "obj-160",
					"maxclass" : "newobj",
					"numinlets" : 1,
					"numoutlets" : 1,
					"outlettype" : [ "" ],
					"patching_rect" : [ 113.0, 153.382812, 105.0, 22.0 ],
					"style" : "",
					"text" : "-rs Master Master"
				}

			}
, 			{
				"box" : 				{
					"fontface" : 3,
					"fontsize" : 12.0,
					"id" : "obj-162",
					"maxclass" : "live.slider",
					"numinlets" : 1,
					"numoutlets" : 2,
					"outlettype" : [ "", "float" ],
					"parameter_enable" : 1,
					"patching_rect" : [ 32.5, 139.382812, 64.0, 50.0 ],
					"presentation" : 1,
					"presentation_rect" : [ 55.0, 1.0, 42.0, 319.0 ],
					"relative" : 1,
					"saved_attribute_attributes" : 					{
						"valueof" : 						{
							"parameter_longname" : "live.slider[14]",
							"parameter_shortname" : "Master",
							"parameter_type" : 0,
							"parameter_mmax" : 1.0,
							"parameter_unitstyle" : 1
						}

					}
,
					"varname" : "live.slider[11]"
				}

			}
, 			{
				"box" : 				{
					"color" : [ 0.239216, 0.643137, 0.709804, 1.0 ],
					"fontname" : "Arial",
					"fontsize" : 12.0,
					"id" : "obj-44",
					"maxclass" : "newobj",
					"numinlets" : 1,
					"numoutlets" : 1,
					"outlettype" : [ "" ],
					"patching_rect" : [ 346.0, 156.771057, 115.0, 22.0 ],
					"style" : "",
					"text" : "-rs SlideUp SlideUp"
				}

			}
, 			{
				"box" : 				{
					"fontface" : 0,
					"fontsize" : 11.0,
					"id" : "obj-46",
					"maxclass" : "live.slider",
					"numinlets" : 1,
					"numoutlets" : 2,
					"outlettype" : [ "", "float" ],
					"parameter_enable" : 1,
					"patching_rect" : [ 269.5, 142.771057, 57.0, 50.0 ],
					"presentation" : 1,
					"presentation_rect" : [ 1.0, 1.0, 54.0, 152.0 ],
					"saved_attribute_attributes" : 					{
						"valueof" : 						{
							"parameter_longname" : "live.slider[5]",
							"parameter_shortname" : "SlideUp",
							"parameter_type" : 0,
							"parameter_mmax" : 1000.0,
							"parameter_unitstyle" : 1,
							"parameter_exponent" : 3.5
						}

					}
,
					"varname" : "live.slider[3]"
				}

			}
 ],
		"lines" : [ 			{
				"patchline" : 				{
					"destination" : [ "obj-118", 0 ],
					"source" : [ "obj-1", 0 ]
				}

			}
, 			{
				"patchline" : 				{
					"destination" : [ "obj-1", 0 ],
					"source" : [ "obj-118", 0 ]
				}

			}
, 			{
				"patchline" : 				{
					"destination" : [ "obj-162", 0 ],
					"source" : [ "obj-160", 0 ]
				}

			}
, 			{
				"patchline" : 				{
					"destination" : [ "obj-160", 0 ],
					"source" : [ "obj-162", 0 ]
				}

			}
, 			{
				"patchline" : 				{
					"destination" : [ "obj-46", 0 ],
					"source" : [ "obj-44", 0 ]
				}

			}
, 			{
				"patchline" : 				{
					"destination" : [ "obj-44", 0 ],
					"source" : [ "obj-46", 0 ]
				}

			}
 ],
		"styles" : [ 			{
				"name" : "Jamoma_highlighted_orange",
				"default" : 				{
					"accentcolor" : [ 1.0, 0.5, 0.0, 1.0 ]
				}
,
				"parentstyle" : "",
				"multi" : 0
			}
 ]
	}

}
